<?xml version="1.0" encoding="UTF-8" standalone="no"?>
<svg
   width="150mm"
   height="125mm"
   viewBox="0 0 150 125"
   version="1.1"
   id="svg8"
   inkscape:version="1.2.1 (9c6d41e410, 2022-07-14)"
   sodipodi:docname="keyronexnofont_short.svg"
   inkscape:export-filename="../../Keyronex/docs/keyronex.png"
   inkscape:export-xdpi="135.46666"
   inkscape:export-ydpi="135.46666"
   xmlns:inkscape="http://www.inkscape.org/namespaces/inkscape"
   xmlns:sodipodi="http://sodipodi.sourceforge.net/DTD/sodipodi-0.dtd"
   xmlns="http://www.w3.org/2000/svg"
   xmlns:svg="http://www.w3.org/2000/svg"
   xmlns:rdf="http://www.w3.org/1999/02/22-rdf-syntax-ns#"
   xmlns:cc="http://creativecommons.org/ns#"
   xmlns:dc="http://purl.org/dc/elements/1.1/">
  <defs
     id="defs2" />
  <sodipodi:namedview
     id="base"
     pagecolor="#ffffff"
     bordercolor="#666666"
     borderopacity="1.0"
     inkscape:pageopacity="0.0"
     inkscape:pageshadow="2"
     inkscape:zoom="0.88"
     inkscape:cx="-186.93182"
     inkscape:cy="213.06818"
     inkscape:document-units="mm"
     inkscape:current-layer="layer1"
     showgrid="false"
     inkscape:window-width="1920"
     inkscape:window-height="1002"
     inkscape:window-x="1920"
     inkscape:window-y="42"
     inkscape:window-maximized="1"
     inkscape:document-rotation="0"
     inkscape:pagecheckerboard="0"
     showguides="false"
     inkscape:showpageshadow="2"
     inkscape:deskcolor="#d1d1d1" />
  <metadata
     id="metadata5">
    <rdf:RDF>
      <cc:Work
         rdf:about="">
        <dc:format>image/svg+xml</dc:format>
        <dc:type
           rdf:resource="http://purl.org/dc/dcmitype/StillImage" />
      </cc:Work>
    </rdf:RDF>
  </metadata>
  <g
     inkscape:label="Layer 1"
     inkscape:groupmode="layer"
     id="layer1"
     transform="translate(0,-147)">
    <path
       style="fill:#000037;fill-opacity:1;stroke-width:0.238536"
       d="m 125.27792,225.53424 c 5.69981,-1.33333 9.61585,-3.37893 13.33832,-6.96743 7.16295,-6.90517 8.4219,-16.86726 3.14789,-24.90944 -1.19553,-1.82303 -4.35605,-4.99154 -6.24078,-6.25656 -1.82797,-1.2269 -4.82095,-2.72356 -6.54266,-3.27166 -1.86895,-0.59498 -1.92157,-0.66197 -1.75655,-2.23609 0.18162,-1.73259 -0.247,-4.94574 -1.00991,-7.57061 -3.24612,-11.16871 -13.86724,-19.70863 -27.234487,-21.89792 -3.493146,-0.57212 -9.372023,-0.56497 -12.640612,0.0153 -5.241715,0.93066 -10.429993,2.97431 -14.637471,5.76561 -2.456092,1.62942 -5.968491,4.93709 -7.87071,7.41196 -1.31816,1.71497 -1.470822,1.83679 -2.233856,1.78262 -3.343443,-0.23739 -7.936384,-0.1216 -9.794292,0.24689 -8.202795,1.62695 -14.76423,6.35052 -18.158309,13.07216 l -0.923067,1.82805 -1.738296,-0.12988 c -2.026149,-0.1514 -6.324233,0.41595 -8.728705,1.15216 -5.081317,1.55583 -9.296667,4.24636 -12.5501251,8.01035 -1.6866534,1.95133 -3.7950525,6.11748 -4.3303845,8.55675 -0.5368122,2.44599 -0.4903248,6.21868 0.1053416,8.54907 0.5885059,2.30236 1.8128348,4.93075 3.1976766,6.86478 1.2777983,1.78452 4.3288274,4.71239 6.1874204,5.93765 3.329799,2.19513 8.158296,3.95351 12.134668,4.41906 0.972424,0.11384 22.999232,0.18969 48.94847,0.16851 47.106008,-0.0384 47.183818,-0.0393 49.330428,-0.5414 z"
       id="path841"
       inkscape:connector-curvature="0" />
    <g
       aria-label="NetaScale"
       transform="matrix(0.26458333,0,0,0.26380412,19.201337,85.738354)"
       id="flowRoot856"
       style="font-size:176px;line-height:125%;letter-spacing:0px;word-spacing:0px;fill:#ffffff;stroke-width:1px">
      <path
         d="m 52.318359,395.57594 q 0,-3.95312 -1.03125,-5.67187 -1.03125,-1.71875 -3.179687,-2.40625 l -3.695313,-0.34375 q -0.429687,-0.17188 -0.429687,-0.94532 0,-0.6875 0.171875,-0.94531 0.257812,-0.25781 1.117187,-0.25781 h 15.210938 q 0.34375,0 0.515625,0.34375 0.257812,0.25781 0.257812,0.6875 0,0.42969 -0.257812,0.6875 -0.171875,0.17187 -1.460938,0.6875 -2.664062,1.03125 -3.695312,2.75 -1.03125,1.63281 -1.289063,6.1875 V 514.34157 H 41.232422 L 19.833984,396.60719 v 106.64844 q 0,4.38281 0.945313,6.1875 0.945312,1.71875 3.09375,2.40625 l 3.867187,0.34375 q 0.429688,0.25781 0.429688,1.03125 0,0.6875 -0.257813,0.94531 -0.171875,0.17188 -1.03125,0.17188 H 11.669922 q -0.34375,0 -0.601563,-0.25782 -0.171875,-0.25781 -0.171875,-0.6875 0,-0.42968 0.171875,-0.60156 0.257813,-0.25781 1.546875,-0.77344 2.664063,-1.03125 3.609375,-2.66406 1.03125,-1.63281 1.289063,-6.35937 V 387.24 h -4.8125 q -0.429688,0 -0.773438,-0.25781 -0.257812,-0.34375 -0.257812,-0.85937 0,-0.42969 0.257812,-0.6875 0.34375,-0.34375 0.773438,-0.34375 h 22.257812 l 17.359375,94.44531 z"
         style="font-family:Onyx;-inkscape-font-specification:Onyx"
         id="path436" />
      <path
         d="m 81.193359,468.53688 v 31.96875 q 0,7.47656 1.71875,9.88281 1.289063,1.80469 4.210938,1.80469 4.8125,0 8.59375,-5.41406 6.273433,-9.10938 6.703123,-24.83594 0.0859,-5.15625 0.42969,-5.84375 0.42969,-0.6875 1.11719,-0.6875 0.60156,0 0.94531,0.51562 0.42969,0.6875 0.42969,3.26563 0,15.29687 -5.414066,25.78125 -5.328125,10.39844 -14.4375,10.39844 -8.507812,0 -14.09375,-7.99219 Q 65.810547,499.3025 65.810547,472.49 v -12.63281 q 0,-20.53906 7.5625,-31.19531 5.414062,-7.5625 13.0625,-7.5625 9.109375,0 14.007813,9.71094 4.98437,9.71093 4.98437,23.63281 v 14.09375 z m 8.9375,-2.32031 v -36.60938 q 0,-3.52344 -1.375,-5.32812 -0.945312,-1.28907 -2.835937,-1.28907 -1.890625,0 -3.351563,1.63282 -1.375,1.63281 -1.375,4.98437 v 36.60938 z"
         style="font-family:Onyx;-inkscape-font-specification:Onyx"
         id="path438" />
      <path
         d="m 116.85742,424.365 h -4.03906 q -0.77344,0 -1.20313,-0.34375 -0.42968,-0.34375 -0.42968,-0.85937 0,-0.60156 0.77343,-1.28906 7.21875,-5.58594 10.48438,-11.08594 3.26562,-5.58594 5.75781,-12.97656 1.80469,-5.32813 1.89063,-7.39063 l 0.17187,-3.95312 q 0.25781,-0.42969 0.77344,-0.42969 0.51562,0 0.77344,0.25781 0.34375,0.25781 0.34375,0.6875 v 35.14844 h 12.80468 q 0.6875,0 1.03125,0.34375 0.42969,0.34375 0.42969,0.77344 0,0.51562 -0.34375,0.77343 -0.42969,0.34375 -1.11719,0.34375 H 132.1543 v 80.00782 q 0,3.69531 1.03125,5.07031 0.6875,1.03125 2.0625,1.03125 2.92187,0 5.15625,-3.35156 3.35156,-4.98438 3.35156,-15.29688 v -12.54687 q 0,-1.20313 0.51562,-1.89063 0.34375,-0.42969 0.85938,-0.42969 0.51562,0 0.85937,0.42969 0.51563,0.6875 0.51563,1.89063 v 9.53906 q 0,14.52344 -4.64063,20.53906 -4.55468,6.01563 -11.42968,6.01563 -6.44532,0 -9.45313,-3.52344 -4.125,-4.72656 -4.125,-13.40625 z"
         style="font-family:Onyx;-inkscape-font-specification:Onyx"
         id="path440" />
      <path
         d="m 156.30273,431.24 q 1.20313,-0.42968 2.32032,-0.60156 1.11718,-0.25781 2.0625,-0.25781 3.4375,0 5.75781,2.49219 2.40625,2.49218 2.40625,6.53125 0,4.125 -2.40625,6.61718 -2.40625,2.49219 -6.44531,2.49219 -4.03907,0 -6.35938,-2.49219 -2.32031,-2.57812 -2.32031,-7.5625 0,-7.39062 5.58594,-12.375 5.58593,-4.98437 15.89843,-4.98437 9.28125,0 13.32032,3.52344 4.125,3.4375 4.125,8.85156 v 74.25 q 0,1.28906 0.6875,2.14844 0.6875,0.77343 1.46093,0.77343 2.14844,0 4.38282,-4.55468 0.60156,-1.375 1.20312,-1.375 l 1.03125,0.94531 q 0,3.00781 -3.86719,6.35937 -3.86718,3.35157 -9.28125,3.35157 -4.64062,0 -7.21875,-2.14844 -2.49218,-2.14844 -3.78125,-7.5625 -3.95312,5.84375 -6.96093,7.82031 -2.92188,1.89063 -6.96094,1.89063 -4.89844,0 -7.5625,-2.49219 -2.57813,-2.57813 -2.57813,-6.70313 v -32.39843 q 0,-5.24219 2.23438,-7.73438 2.32031,-2.49219 13.49219,-6.1875 4.98437,-1.71875 8.33593,-3.4375 v -24.75 q 0,-3.86719 -2.0625,-6.01562 -1.97656,-2.14844 -5.24218,-2.14844 -7.5625,0 -11.25782,7.73437 z m 18.5625,27.84375 q -5.5,2.14844 -7.13281,4.29688 -1.54687,2.14844 -1.54687,6.875 v 36.35156 q 0,1.80469 0.60156,2.66406 0.6875,0.85938 1.63281,0.85938 1.375,0 3.09375,-2.92188 3.35156,-5.41406 3.35156,-13.0625 z"
         style="font-family:Onyx;-inkscape-font-specification:Onyx"
         id="path442" />
      <path
         d="m 211.47461,506.865 q -2.92188,2.0625 -6.01563,5.15625 -3.00781,3.00782 -3.69531,3.00782 -0.25781,0 -0.42969,-0.25782 -0.17187,-0.25781 -0.17187,-1.11718 v -53.96875 q 0,-0.34375 0.17187,-0.51563 0.25782,-0.25781 0.51563,-0.25781 0.42969,0 0.77344,0.51562 0.60156,0.77344 0.60156,1.71875 v 3.69532 q 0,10.74218 3.35156,24.49218 3.35156,13.75 8.76563,19.59375 2.66406,2.92188 6.1875,2.92188 4.03906,0 7.04687,-3.78125 3.00781,-3.86719 3.00781,-11.60156 0,-7.39063 -2.75,-15.64063 -3.60937,-11 -15.98437,-35.23437 -7.73438,-15.125 -9.88281,-21.82813 -2.0625,-6.78906 -2.0625,-13.14844 0,-12.63281 5.92968,-19.76562 6.01563,-7.13281 13.66407,-7.13281 6.53125,0 11.77343,6.96093 4.29688,-2.32031 8.33594,-5.75781 1.375,-1.20312 1.80469,-1.20312 0.17187,0 0.34375,0.17187 0.17187,0.34375 0.17187,1.20313 v 46.66406 q 0,0.94531 -0.42968,1.54687 -0.25782,0.34375 -0.6875,0.34375 -0.51563,0 -0.77344,-0.42968 -0.25781,-0.42969 -1.03125,-6.1875 -3.52344,-26.72657 -9.36719,-35.40625 -3.4375,-4.98438 -7.82031,-4.98438 -3.26563,0 -5.67188,2.92188 -2.40625,2.92187 -2.40625,8.59375 0,10.22656 11.6875,33.60156 l 7.5625,15.21094 q 7.82032,15.72656 10.39844,25.00781 2.57813,9.19531 2.57813,16.5 0,12.71875 -6.27344,19.9375 -6.27344,7.21875 -14.69531,7.21875 -9.10938,0 -14.52344,-8.76563 z"
         style="font-family:Onyx;-inkscape-font-specification:Onyx"
         id="path444" />
      <path
         d="m 282.0293,428.06032 q 2.57812,-2.0625 4.55468,-4.46875 1.97657,-2.49219 2.66407,-2.49219 l 0.42968,0.17187 0.17188,0.85938 v 36.78125 q 0,0.60156 -0.34375,0.94531 -0.34375,0.34375 -0.77344,0.34375 -0.60156,0 -0.85937,-0.42969 -0.17188,-0.34375 -0.51563,-4.21093 -0.51562,-6.44532 -3.35156,-16.32813 -2.83594,-9.96875 -5.67188,-12.97656 -2.75,-3.09375 -5.92968,-3.09375 -2.0625,0 -2.92188,1.11719 -0.85937,1.03125 -0.85937,4.55468 v 75.79688 q 0,4.64062 1.375,6.44531 1.375,1.71875 3.78125,1.71875 3.09375,0 5.92968,-2.49219 2.83594,-2.57812 4.46875,-7.47656 3.4375,-9.96875 3.4375,-22.94531 v -4.8125 q 0,-1.20313 0.42969,-1.80469 l 0.6875,-0.51562 q 0.42969,0 0.6875,0.51562 0.42969,0.60156 0.42969,1.80469 V 480.74 q 0,19.16407 -6.35938,28.27344 -4.46875,6.35938 -11.34375,6.35938 -7.5625,0 -12.375,-6.875 -6.27343,-9.02344 -6.27343,-31.45313 v -16.41406 q 0,-22.34375 6.875,-32.57031 4.72656,-6.96094 11.6875,-6.96094 6.01562,0 9.96875,6.96094 z"
         style="font-family:Onyx;-inkscape-font-specification:Onyx"
         id="path446" />
      <path
         d="m 301.10742,431.24 q 1.20313,-0.42968 2.32031,-0.60156 1.11719,-0.25781 2.0625,-0.25781 3.4375,0 5.75782,2.49219 2.40625,2.49218 2.40625,6.53125 0,4.125 -2.40625,6.61718 -2.40625,2.49219 -6.44532,2.49219 -4.03906,0 -6.35937,-2.49219 -2.32031,-2.57812 -2.32031,-7.5625 0,-7.39062 5.58593,-12.375 5.58594,-4.98437 15.89844,-4.98437 9.28125,0 13.32031,3.52344 4.125,3.4375 4.125,8.85156 v 74.25 q 0,1.28906 0.6875,2.14844 0.6875,0.77343 1.46094,0.77343 2.14844,0 4.38281,-4.55468 0.60157,-1.375 1.20313,-1.375 l 1.03125,0.94531 q 0,3.00781 -3.86719,6.35937 -3.86719,3.35157 -9.28125,3.35157 -4.64062,0 -7.21875,-2.14844 -2.49219,-2.14844 -3.78125,-7.5625 -3.95312,5.84375 -6.96094,7.82031 -2.92187,1.89063 -6.96093,1.89063 -4.89844,0 -7.5625,-2.49219 -2.57813,-2.57813 -2.57813,-6.70313 v -32.39843 q 0,-5.24219 2.23438,-7.73438 2.32031,-2.49219 13.49218,-6.1875 4.98438,-1.71875 8.33594,-3.4375 v -24.75 q 0,-3.86719 -2.0625,-6.01562 -1.97656,-2.14844 -5.24219,-2.14844 -7.5625,0 -11.25781,7.73437 z m 18.5625,27.84375 q -5.5,2.14844 -7.13281,4.29688 -1.54688,2.14844 -1.54688,6.875 v 36.35156 q 0,1.80469 0.60157,2.66406 0.6875,0.85938 1.63281,0.85938 1.375,0 3.09375,-2.92188 3.35156,-5.41406 3.35156,-13.0625 z"
         style="font-family:Onyx;-inkscape-font-specification:Onyx"
         id="path448" />
      <path
         d="m 364.78711,385.09157 v 127.01562 h 3.35156 q 0.42969,0 0.6875,0.34375 0.34375,0.25781 0.34375,0.77344 0,0.51562 -0.34375,0.85937 -0.25781,0.25782 -0.6875,0.25782 h -22.42969 q -0.42968,0 -0.77343,-0.25782 -0.25782,-0.34375 -0.25782,-0.85937 0,-0.51563 0.25782,-0.77344 0.34375,-0.34375 0.77343,-0.34375 h 3.60938 V 387.24 h -3.60938 q -0.51562,0 -0.85937,-0.25781 -0.34375,-0.34375 -0.34375,-0.77344 0,-0.51562 0.34375,-0.77343 0.34375,-0.34375 0.85937,-0.34375 z"
         style="font-family:Onyx;-inkscape-font-specification:Onyx"
         id="path450" />
      <path
         d="m 390.6543,468.53688 v 31.96875 q 0,7.47656 1.71875,9.88281 1.28906,1.80469 4.21093,1.80469 4.8125,0 8.59375,-5.41406 6.27344,-9.10938 6.70313,-24.83594 0.0859,-5.15625 0.42969,-5.84375 0.42968,-0.6875 1.11718,-0.6875 0.60157,0 0.94532,0.51562 0.42968,0.6875 0.42968,3.26563 0,15.29687 -5.41406,25.78125 -5.32812,10.39844 -14.4375,10.39844 -8.50781,0 -14.09375,-7.99219 -5.58594,-8.07813 -5.58594,-34.89063 v -12.63281 q 0,-20.53906 7.5625,-31.19531 5.41407,-7.5625 13.0625,-7.5625 9.10938,0 14.00782,9.71094 4.98437,9.71093 4.98437,23.63281 v 14.09375 z m 8.9375,-2.32031 v -36.60938 q 0,-3.52344 -1.375,-5.32812 -0.94532,-1.28907 -2.83594,-1.28907 -1.89063,0 -3.35156,1.63282 -1.375,1.63281 -1.375,4.98437 v 36.60938 z"
         style="font-family:Onyx;-inkscape-font-specification:Onyx"
         id="path452" />
    </g>
    <g
       aria-label="KEYRONEX"
       id="text876"
       style="font-size:38.8056px;line-height:125%;letter-spacing:0px;word-spacing:0px;stroke-width:0.264583px"
       transform="matrix(1,0,0,0.99705494,0,-11.846197)">
      <path
         d="m 25.062424,251.38041 h -1.136883 q -0.113688,0 -0.189481,-0.0569 -0.05684,-0.0758 -0.05684,-0.18948 0,-0.11369 0.05684,-0.17053 0.07579,-0.0758 0.189481,-0.0758 h 6.233907 q 0.189481,0.13263 0.189481,0.24632 0,0.11369 -0.189481,0.24633 h -1.193727 v 13.81312 l 4.320155,-10.51616 q 0.397909,-0.9474 0.397909,-1.72427 0,-0.64424 -0.246325,-1.0232 -0.246324,-0.37896 -0.701078,-0.5116 l -0.720025,-0.0568 q -0.132637,-0.0758 -0.132637,-0.22738 0,-0.11369 0.05684,-0.17053 0.07579,-0.0758 0.170533,-0.0758 h 4.661219 q 0.09474,0 0.151585,0.0758 0.07579,0.0568 0.07579,0.17053 0,0.15159 -0.113688,0.20843 l -0.909507,0.0947 q -0.663181,0.20843 -1.15583,0.92846 -0.473702,0.72002 -1.36426,2.91799 l -1.932701,4.69912 4.964389,18.91015 h 0.852662 q 0.09474,0 0.151584,0.0758 0.07579,0.0568 0.07579,0.17054 0,0.11368 -0.07579,0.18948 -0.05684,0.0568 -0.151584,0.0568 h -6.025479 q -0.170532,-0.13264 -0.170532,-0.24632 0,-0.13264 0.170532,-0.24633 h 1.231623 l -3.581181,-13.18784 v 13.18784 h 1.193727 q 0.113688,0 0.170533,0.0758 0.07579,0.0568 0.07579,0.17054 0,0.11368 -0.07579,0.18948 -0.05684,0.0568 -0.170533,0.0568 h -6.233907 l -0.07579,-0.0379 q -0.05684,-0.0758 -0.05684,-0.20842 0,-0.13264 0.132637,-0.24633 h 1.136883 z"
         style="font-family:Onyx;-inkscape-font-specification:Onyx"
         id="path419" />
      <path
         d="m 39.576627,251.36146 h -1.212675 q -0.18948,-0.13264 -0.18948,-0.22738 0,-0.13263 0.18948,-0.24632 h 10.76249 v 10.55406 q -0.113688,0.18948 -0.227376,0.18948 -0.113688,0 -0.170533,-0.0568 -0.0379,-0.0758 -0.05684,-0.5495 -0.132636,-3.14537 -0.985298,-5.85494 -0.852662,-2.70957 -1.64848,-3.4296 -0.416857,-0.37896 -1.402156,-0.37896 h -1.174778 v 13.33942 q 1.080038,-0.11368 1.762168,-1.13688 0.909506,-1.38321 0.909506,-4.24436 v -1.47795 q 0,-0.0947 0.05684,-0.15158 0.07579,-0.0758 0.170533,-0.0758 0.09474,0 0.151584,0.0758 0.05684,0.0568 0.05684,0.15158 v 14.0784 q 0,0.0947 -0.05684,0.17053 -0.05684,0.0568 -0.151584,0.0568 -0.09474,0 -0.170533,-0.0568 -0.05684,-0.0758 -0.05684,-0.17053 v -1.36426 q 0,-2.80431 -1.023194,-4.45279 -0.606338,-0.9474 -1.26952,-0.9474 -0.170532,0 -0.265272,0.11369 -0.113688,0.13263 -0.113688,0.41685 v 13.20679 h 0.606337 q 0.77687,0 1.534792,-0.56844 0.757922,-0.58739 1.421103,-2.00849 0.663182,-1.44005 1.023195,-3.12643 0.587389,-2.72852 0.587389,-4.26331 v -1.25057 q 0.132637,-0.20843 0.246325,-0.20843 0.113688,0 0.170532,0.0568 0.07579,0.0568 0.07579,0.15159 v 11.70989 h -10.76249 q -0.132636,0 -0.208429,-0.0758 -0.07579,-0.0758 -0.07579,-0.17053 0,-0.11369 0.07579,-0.17054 0.07579,-0.0758 0.208429,-0.0758 h 1.212675 z"
         style="font-family:Onyx;-inkscape-font-specification:Onyx"
         id="path421" />
      <path
         d="M 53.882401,265.25038 50.774922,251.38041 H 50.017 q -0.09474,0 -0.151585,-0.0569 -0.05684,-0.0758 -0.05684,-0.18948 0,-0.13263 0.05684,-0.18948 0.05685,-0.0568 0.151585,-0.0568 h 6.158115 q 0.208428,0.13263 0.208428,0.22737 0,0.13264 -0.208428,0.26528 h -1.515844 l 2.936947,12.94151 2.197974,-10.08036 q 0.132636,-0.56844 0.132636,-1.06109 0,-0.72002 -0.227376,-1.15583 -0.227377,-0.45475 -0.625286,-0.60634 l -0.625285,-0.0758 q -0.113689,-0.0568 -0.113689,-0.20843 0,-0.13263 0.208429,-0.24632 h 3.069583 q 0.208429,0 0.284221,0.0379 l 0.05684,0.0947 q 0,0.13264 -0.227376,0.28423 -0.947403,0.54949 -1.307416,2.17902 l -2.61483,11.76674 v 13.64259 h 1.496896 q 0.09474,0 0.151584,0.0758 0.07579,0.0568 0.07579,0.17054 0,0.11368 -0.07579,0.18948 -0.05684,0.0568 -0.151584,0.0568 h -6.99183 q -0.09474,0 -0.151584,-0.0568 -0.05684,-0.0758 -0.05684,-0.18948 0,-0.11369 0.05684,-0.17054 0.05684,-0.0758 0.151584,-0.0758 h 1.572688 z"
         style="font-family:Onyx;-inkscape-font-specification:Onyx"
         id="path423" />
      <path
         d="m 63.792231,251.36146 h -1.117935 q -0.208428,-0.11369 -0.208428,-0.24633 0,-0.11368 0.208428,-0.22737 h 5.968635 q 2.216921,0 3.846453,1.8948 1.629532,1.87586 1.629532,5.13492 0,1.87586 -0.625285,3.33486 -0.625286,1.459 -1.856909,2.4064 -0.738974,0.56844 -2.292714,1.09899 1.743221,0.5116 2.42535,0.9853 1.155831,0.79581 1.705325,1.91375 0.568441,1.11793 0.568441,2.89905 v 6.93499 q 0,0.4737 0.151584,0.66318 0.151585,0.18948 0.397909,0.18948 0.378961,0 0.68213,-0.4737 0.492649,-0.75793 0.625286,-2.72852 0.01895,-0.34107 0.09474,-0.45476 0.09474,-0.11368 0.18948,-0.11368 0.113689,0 0.189481,0.13263 0.09474,0.15159 0.09474,0.56844 0,2.10324 -1.023195,3.25907 -1.004246,1.13688 -2.539038,1.13688 -1.364259,0 -2.065337,-0.70108 -0.701078,-0.70107 -0.701078,-1.98954 V 266.9557 q 0,-1.28847 -0.644233,-1.72427 -0.378961,-0.24633 -1.781117,-0.24633 v 13.90787 h 0.928455 q 0.151584,0 0.227376,0.0758 0.09474,0.0758 0.09474,0.17054 0,0.0947 -0.09474,0.17053 -0.07579,0.0758 -0.227376,0.0758 h -5.968635 q -0.113688,0 -0.18948,-0.0568 -0.07579,-0.0758 -0.07579,-0.18948 0,-0.11369 0.07579,-0.17054 0.07579,-0.0758 0.18948,-0.0758 h 1.117935 z m 3.922245,0 v 13.11205 h 0.928455 q 0.663181,0 1.080038,-0.45476 0.416857,-0.45475 0.416857,-1.32636 v -9.83403 q 0,-0.85267 -0.303168,-1.17478 -0.303169,-0.32212 -1.193727,-0.32212 z"
         style="font-family:Onyx;-inkscape-font-specification:Onyx"
         id="path425" />
      <path
         d="m 88.197314,261.91552 v 6.99183 q 0,6.04443 -1.913752,8.82979 -1.326364,1.9327 -3.315908,1.9327 -1.345312,0 -2.482195,-0.96635 -1.136882,-0.96635 -1.781116,-2.84221 -1.042142,-3.01274 -1.042142,-6.68866 v -8.18555 q 0,-5.72231 1.913752,-8.48873 1.326364,-1.91375 3.278012,-1.91375 0.947403,0 1.743221,0.4358 0.795818,0.41686 1.421103,1.25058 0.625286,0.81476 1.117935,2.17902 0.511597,1.34531 0.720026,2.80431 0.341064,2.4822 0.341064,4.66122 z m -6.537076,14.64684 q 0,1.47795 0.454753,2.14113 0.341065,0.4737 0.833715,0.4737 0.473701,0 0.833714,-0.41686 0.360012,-0.4358 0.360012,-1.23162 v -24.29139 q 0,-1.0232 -0.473701,-1.62954 -0.322117,-0.4358 -0.814766,-0.4358 -0.435805,0 -0.757922,0.41686 -0.435805,0.56844 -0.435805,1.64848 z"
         style="font-family:Onyx;-inkscape-font-specification:Onyx"
         id="path427" />
      <path
         d="m 98.542949,253.19942 q 0,-0.87161 -0.227377,-1.25057 -0.227377,-0.37896 -0.701078,-0.53055 l -0.814766,-0.0758 q -0.09474,-0.0379 -0.09474,-0.20843 0,-0.15158 0.0379,-0.20843 0.05684,-0.0568 0.246325,-0.0568 h 3.353797 q 0.0758,0 0.11369,0.0758 0.0568,0.0568 0.0568,0.15159 0,0.0947 -0.0568,0.15158 -0.0379,0.0379 -0.32212,0.15159 -0.587381,0.22737 -0.814758,0.60633 -0.227376,0.36002 -0.28422,1.36426 v 26.01567 H 96.098651 L 91.380587,253.4268 v 23.51452 q 0,0.96635 0.208428,1.36426 0.208429,0.37896 0.68213,0.53055 l 0.852662,0.0758 q 0.09474,0.0568 0.09474,0.22738 0,0.15158 -0.05684,0.20842 -0.0379,0.0379 -0.227376,0.0379 h -3.353804 q -0.07579,0 -0.132637,-0.0568 -0.0379,-0.0568 -0.0379,-0.15159 0,-0.0947 0.0379,-0.13263 0.05684,-0.0568 0.341065,-0.17054 0.587389,-0.22737 0.795818,-0.58739 0.227377,-0.36001 0.284221,-1.40215 v -25.52302 h -1.061091 q -0.09474,0 -0.170532,-0.0568 -0.05684,-0.0758 -0.05684,-0.18949 0,-0.0947 0.05684,-0.15158 0.07579,-0.0758 0.170532,-0.0758 h 4.907544 l 3.827506,20.8239 z"
         style="font-family:Onyx;-inkscape-font-specification:Onyx"
         id="path429" />
      <path
         d="m 102.59783,251.36146 h -1.21268 q -0.18948,-0.13264 -0.18948,-0.22738 0,-0.13263 0.18948,-0.24632 h 10.76249 v 10.55406 q -0.11369,0.18948 -0.22737,0.18948 -0.11369,0 -0.17054,-0.0568 -0.0379,-0.0758 -0.0568,-0.5495 -0.13264,-3.14537 -0.9853,-5.85494 -0.85266,-2.70957 -1.64848,-3.4296 -0.41686,-0.37896 -1.40215,-0.37896 h -1.17478 v 13.33942 q 1.08004,-0.11368 1.76217,-1.13688 0.9095,-1.38321 0.9095,-4.24436 v -1.47795 q 0,-0.0947 0.0568,-0.15158 0.0758,-0.0758 0.17053,-0.0758 0.0947,0 0.15158,0.0758 0.0568,0.0568 0.0568,0.15158 v 14.0784 q 0,0.0947 -0.0568,0.17053 -0.0568,0.0568 -0.15158,0.0568 -0.0947,0 -0.17053,-0.0568 -0.0568,-0.0758 -0.0568,-0.17053 v -1.36426 q 0,-2.80431 -1.02319,-4.45279 -0.60634,-0.9474 -1.26952,-0.9474 -0.17053,0 -0.26528,0.11369 -0.11368,0.13263 -0.11368,0.41685 v 13.20679 h 0.60633 q 0.77687,0 1.5348,-0.56844 0.75792,-0.58739 1.4211,-2.00849 0.66318,-1.44005 1.02319,-3.12643 0.58739,-2.72852 0.58739,-4.26331 v -1.25057 q 0.13264,-0.20843 0.24633,-0.20843 0.11369,0 0.17053,0.0568 0.0758,0.0568 0.0758,0.15159 v 11.70989 H 101.3852 q -0.13263,0 -0.20843,-0.0758 -0.0758,-0.0758 -0.0758,-0.17053 0,-0.11369 0.0758,-0.17054 0.0758,-0.0758 0.20843,-0.0758 h 1.21268 z"
         style="font-family:Onyx;-inkscape-font-specification:Onyx"
         id="path431" />
      <path
         d="m 114.28877,251.38041 h -0.89056 q -0.0947,0 -0.17053,-0.0569 -0.0568,-0.0758 -0.0568,-0.18948 0,-0.11369 0.0568,-0.17053 0.0758,-0.0758 0.17053,-0.0758 h 6.3476 q 0.0947,0 0.15158,0.0758 0.0758,0.0568 0.0758,0.17053 0,0.11369 -0.0758,0.18948 -0.0568,0.0569 -0.15158,0.0569 h -1.51584 l 2.59588,10.15615 2.33061,-7.50343 q 0.18948,-0.64423 0.18948,-1.17477 0,-0.66319 -0.22738,-0.9853 -0.20843,-0.34107 -0.68213,-0.43581 l -0.87161,-0.0758 q -0.11369,-0.0568 -0.11369,-0.22738 0,-0.11369 0.20843,-0.24632 h 4.26331 q 0.20843,0.13263 0.20843,0.24632 0,0.15159 -0.0947,0.20843 l -0.58739,0.0568 q -0.45475,0.13263 -0.9095,0.64423 -0.43581,0.49265 -0.64424,1.11793 l -2.86115,9.20875 4.20646,16.5227 h 0.87161 q 0.20843,0.13264 0.20843,0.24633 0,0.11368 -0.0568,0.18948 -0.0569,0.0568 -0.15159,0.0568 h -6.06337 q -0.0947,0 -0.17053,-0.0568 -0.0568,-0.0758 -0.0568,-0.18948 0,-0.11369 0.0568,-0.17054 0.0758,-0.0758 0.17053,-0.0758 h 1.30741 l -2.8801,-11.33093 -2.67167,8.73505 q -0.17054,0.54949 -0.17054,1.17478 0,0.58739 0.36002,0.92845 0.53054,0.49265 1.02319,0.49265 h 0.49265 q 0.0947,0 0.15159,0.0758 0.0758,0.0568 0.0758,0.17054 0,0.11368 -0.0758,0.18948 -0.0568,0.0568 -0.15159,0.0568 h -4.47174 q -0.20843,-0.13264 -0.20843,-0.24632 0,-0.11369 0.0379,-0.17054 0.0568,-0.0568 0.17053,-0.0758 1.57269,-0.28422 2.33061,-2.76641 l 2.86116,-9.45508 z"
         style="font-family:Onyx;-inkscape-font-specification:Onyx"
         id="path433" />
    </g>
    <rect
       style="fill:#000000;stroke-width:4.22709"
       id="rect1904"
       width="139.841"
       height="1.4838225"
       x="5.079495"
       y="231.00049" />
  </g>
</svg>
