<?xml version="1.0" encoding="UTF-8" standalone="no"?>
<!-- Created with Inkscape (http://www.inkscape.org/) -->

<svg
   width="114mm"
   height="34mm"
   viewBox="0 0 114 34"
   version="1.1"
   id="svg5"
   xml:space="preserve"
   inkscape:version="1.2.2 (b0a8486541, 2022-12-01)"
   sodipodi:docname="keyronex.svg"
   inkscape:export-filename="keyronex.png"
   inkscape:export-xdpi="96"
   inkscape:export-ydpi="96"
   xmlns:inkscape="http://www.inkscape.org/namespaces/inkscape"
   xmlns:sodipodi="http://sodipodi.sourceforge.net/DTD/sodipodi-0.dtd"
   xmlns="http://www.w3.org/2000/svg"
   xmlns:svg="http://www.w3.org/2000/svg"><sodipodi:namedview
     id="namedview7"
     pagecolor="#ffffff"
     bordercolor="#000000"
     borderopacity="0.25"
     inkscape:showpageshadow="2"
     inkscape:pageopacity="0.0"
     inkscape:pagecheckerboard="0"
     inkscape:deskcolor="#d1d1d1"
     inkscape:document-units="mm"
     showgrid="false"
     inkscape:zoom="1.9401172"
     inkscape:cx="310.54825"
     inkscape:cy="36.853444"
     inkscape:window-width="1920"
     inkscape:window-height="1002"
     inkscape:window-x="1920"
     inkscape:window-y="42"
     inkscape:window-maximized="1"
     inkscape:current-layer="layer1" /><defs
     id="defs2" /><g
     inkscape:label="Layer 1"
     inkscape:groupmode="layer"
     id="layer1"><rect
       style="fill:#0000c5;fill-opacity:1;stroke:none;stroke-width:8.73173"
       id="rect12492"
       width="114"
       height="34"
       x="0"
       y="0" /><g
       aria-label="Keyronex"
       id="text1516-3"
       style="font-style:italic;font-weight:bold;font-size:25.4px;font-family:'URW Gothic';-inkscape-font-specification:'URW Gothic Bold Italic';letter-spacing:-1.21708px;fill:#ffffff;stroke-width:0.264583"
       transform="matrix(1.0038471,0,0,1.0070626,1.1520086,-0.48158716)"><path
         d="M 5.1000001,31.1206 H 8.5798 l 1.524,-8.255 4.318,8.255 h 4.1656 L 13.3296,21.5702 22.0672,12.35 H 17.9016 L 10.561,20.4526 12.0596,12.35 H 8.5798 Z"
         id="path11678"
         style="fill:#ffffff" /><path
         d="m 32.889733,25.5834 c 0.3302,-0.7874 0.508,-1.905 0.508,-3.1496 0,-3.3528 -2.4892,-5.715 -6.0198,-5.715 -4.699,0 -8.9408,4.1402 -8.9408,8.7376 0,3.5306 2.6162,5.9944 6.3754,5.9944 3.175,0 6.0706,-1.7018 7.5946,-4.4958 h -3.683 c -0.9652,0.9652 -1.9812,1.397 -3.429,1.397 -1.9558,0 -3.302,-1.143 -3.302,-2.7686 z m -10.4394,-2.9972 c 0.6604,-1.651 2.4384,-2.7686 4.3942,-2.7686 2.159,0 3.302,0.9398 3.4036,2.7686 z"
         id="path11680"
         style="fill:#ffffff" /><path
         d="M 32.790234,31.124612 H 37.023 L 48.0795,17.049 h -3.986266 l -5.1054,6.837814 -1.4224,-6.837814 h -3.8608 l 2.794,9.561512 z"
         id="path11682"
         style="fill:#ffffff;stroke-width:0.229117"
         sodipodi:nodetypes="ccccccccc" /><path
         d="m 45.822552,31.1206 h 3.3782 l 1.4478,-7.8232 c 0.2794,-2.032 1.6764,-3.302 3.6576,-3.3274 l 0.6096,-3.2512 c -1.651,-0.0508 -2.54,0.381 -3.6322,1.7018 l 0.254,-1.3716 h -3.0988 z"
         id="path11684"
         style="fill:#ffffff" /><path
         d="m 61.801252,16.7188 c -4.7752,0 -9.017,4.1402 -9.017,8.7884 0,3.3782 2.667,5.9436 6.1468,5.9436 4.8006,0 9.0678,-4.064 9.0678,-8.636 0,-3.556 -2.5908,-6.096 -6.1976,-6.096 z m -0.5842,3.0988 c 1.905,0 3.302,1.4732 3.302,3.4544 0,2.6416 -2.3622,5.08 -4.9022,5.08 -1.9558,0 -3.3528,-1.4224 -3.3528,-3.4036 0,-2.7178 2.3368,-5.1308 4.953,-5.1308 z"
         id="path11686"
         style="fill:#ffffff" /><path
         d="m 67.264355,31.1206 h 3.3782 l 1.2192,-6.6294 c 0.3302,-1.8288 0.6604,-2.7178 1.1938,-3.3782 0.7366,-0.8636 1.651,-1.2954 2.6924,-1.2954 1.397,0 2.1336,0.7112 2.1336,2.0574 0,0.7366 -0.0762,1.5494 -0.2286,2.3622 l -1.27,6.8834 h 3.3782 l 1.397,-7.5438 c 0.2032,-1.143 0.3048,-1.9558 0.3048,-2.6924 0,-2.6924 -1.6002,-4.1656 -4.5212,-4.1656 -1.5748,0 -2.667,0.4318 -4.191,1.6764 l 0.254,-1.3462 h -3.1242 z"
         id="path11688"
         style="fill:#ffffff" /><path
         d="m 96.298685,25.5834 c 0.3302,-0.7874 0.508,-1.905 0.508,-3.1496 0,-3.3528 -2.4892,-5.715 -6.0198,-5.715 -4.699,0 -8.9408,4.1402 -8.9408,8.7376 0,3.5306 2.6162,5.9944 6.3754,5.9944 3.175,0 6.0706,-1.7018 7.5946,-4.4958 h -3.683 c -0.9652,0.9652 -1.9812,1.397 -3.429,1.397 -1.9558,0 -3.302,-1.143 -3.302,-2.7686 z m -10.4394,-2.9972 c 0.6604,-1.651 2.4384,-2.7686 4.3942,-2.7686 2.159,0 3.302,0.9398 3.4036,2.7686 z"
         id="path11690"
         style="fill:#ffffff" /><path
         d="m 94.471976,31.1206 h 4.064 l 3.860804,-4.826 2.0574,4.826 h 4.064 l -3.6576,-7.2644 5.5626,-6.8072 h -3.81 l -3.2766,4.2418 -1.7526,-4.2418 h -3.810004 l 3.048004,6.8072 z"
         id="path11692"
         style="fill:#ffffff" /></g><g
       style="fill:#000000;fill-opacity:1;fill-rule:nonzero;stroke:none;stroke-width:0;stroke-linecap:butt;stroke-linejoin:miter;stroke-miterlimit:10;stroke-dasharray:none"
       transform="matrix(0.45580473,0,0,0.29178443,3.5936102,-1.7399528)"
       id="g8556">
	
</g><path
       id="path9818"
       style="fill:#ffffff;fill-opacity:1;stroke:none;stroke-width:1.45949;stroke-dasharray:none;stroke-opacity:1"
       d="M 6.2898106,18.179056 H 6.1789139 c -0.2490799,0 -0.4860308,-0.05619 -0.6502068,-0.15448 -2.2755077,-1.358693 -3.5287047,-3.104155 -3.5287047,-4.91514 0,-4.1045212 6.6303955,-6.9438001 14.1728646,-6.9438001 h 8.577449 L 24.750002,2.8086627 34.754171,8.3767581 24.750002,13.944397 c 0,0 3.14e-4,-2.343915 3.14e-4,-3.351761 H 10.304692 c -4.0030393,0 -5.1714789,2.2108 -5.1714789,4.313226 0,0.92756 0.4513435,1.919469 1.6170375,2.614969 0.2248222,0.134232 0.3800316,0.351187 0.23968,0.514084 -0.1403503,0.162898 -0.3600717,0.144143 -0.70012,0.144143 z"
       sodipodi:nodetypes="cscsscccccsscssc" /><text
       xml:space="preserve"
       style="font-style:italic;font-variant:normal;font-weight:bold;font-stretch:normal;font-size:25.4px;font-family:'URW Gothic';-inkscape-font-specification:'URW Gothic Bold Italic';direction:rtl;fill:#ffffff;fill-opacity:1;stroke:none;stroke-width:1.347"
       x="8.6857529"
       y="40.595322"
       id="text13087"><tspan
         sodipodi:role="line"
         id="tspan13085"
         style="stroke-width:1.347"
         x="8.6857529"
         y="40.595322" /></text></g></svg>
