<?xml version="1.0" encoding="UTF-8" standalone="no"?>
<svg
   width="150mm"
   height="150mm"
   viewBox="0 0 150 150"
   version="1.1"
   id="svg8"
   inkscape:version="1.2.1 (9c6d41e410, 2022-07-14)"
   sodipodi:docname="keyronex.svg"
   inkscape:export-filename="Z:\scalux.png"
   inkscape:export-xdpi="135.46666"
   inkscape:export-ydpi="135.46666"
   xmlns:inkscape="http://www.inkscape.org/namespaces/inkscape"
   xmlns:sodipodi="http://sodipodi.sourceforge.net/DTD/sodipodi-0.dtd"
   xmlns="http://www.w3.org/2000/svg"
   xmlns:svg="http://www.w3.org/2000/svg"
   xmlns:rdf="http://www.w3.org/1999/02/22-rdf-syntax-ns#"
   xmlns:cc="http://creativecommons.org/ns#"
   xmlns:dc="http://purl.org/dc/elements/1.1/">
  <defs
     id="defs2" />
  <sodipodi:namedview
     id="base"
     pagecolor="#ffffff"
     bordercolor="#666666"
     borderopacity="1.0"
     inkscape:pageopacity="0.0"
     inkscape:pageshadow="2"
     inkscape:zoom="0.88"
     inkscape:cx="-13.636364"
     inkscape:cy="213.06818"
     inkscape:document-units="mm"
     inkscape:current-layer="layer1"
     showgrid="false"
     inkscape:window-width="1920"
     inkscape:window-height="1002"
     inkscape:window-x="0"
     inkscape:window-y="27"
     inkscape:window-maximized="1"
     inkscape:document-rotation="0"
     inkscape:pagecheckerboard="0"
     showguides="false"
     inkscape:showpageshadow="2"
     inkscape:deskcolor="#d1d1d1" />
  <metadata
     id="metadata5">
    <rdf:RDF>
      <cc:Work
         rdf:about="">
        <dc:format>image/svg+xml</dc:format>
        <dc:type
           rdf:resource="http://purl.org/dc/dcmitype/StillImage" />
      </cc:Work>
    </rdf:RDF>
  </metadata>
  <g
     inkscape:label="Layer 1"
     inkscape:groupmode="layer"
     id="layer1"
     transform="translate(0,-147)">
    <path
       style="fill:#000037;fill-opacity:1;stroke-width:0.238888"
       d="m 125.27792,238.0816 c 5.69981,-1.33727 9.61585,-3.38891 13.33832,-6.98801 7.16295,-6.92556 8.4219,-16.91708 3.14789,-24.98301 -1.19553,-1.82842 -4.35605,-5.00629 -6.24078,-6.27504 -1.82797,-1.23053 -4.82095,-2.73161 -6.54266,-3.28133 -1.86895,-0.59674 -1.92157,-0.66392 -1.75655,-2.24269 0.18162,-1.73771 -0.247,-4.96035 -1.00991,-7.59297 -3.24612,-11.2017 -13.86724,-19.76685 -27.234487,-21.96261 -3.493146,-0.57381 -9.372023,-0.56663 -12.640612,0.0154 -5.241715,0.93341 -10.429993,2.98309 -14.637471,5.78264 -2.456092,1.63423 -5.968491,4.95167 -7.87071,7.43385 -1.31816,1.72004 -1.470822,1.84222 -2.233856,1.78789 -3.343443,-0.23809 -7.936384,-0.12196 -9.794292,0.24762 -8.202795,1.63175 -14.76423,6.36928 -18.158309,13.11077 l -0.923067,1.83345 -1.738296,-0.13026 c -2.026149,-0.15185 -6.324233,0.41717 -8.728705,1.15556 -5.081317,1.56042 -9.296667,4.2589 -12.5501251,8.03401 -1.6866534,1.95709 -3.7950525,6.13555 -4.3303845,8.58202 -0.5368122,2.45322 -0.4903248,6.23705 0.1053416,8.57433 0.5885059,2.30916 1.8128348,4.94531 3.1976766,6.88505 1.2777983,1.78979 4.3288274,4.72631 6.1874204,5.95519 3.329799,2.20161 8.158296,3.96519 12.134668,4.43211 0.972424,0.11418 22.999232,0.19025 48.94847,0.16901 47.106008,-0.0385 47.183818,-0.0394 49.330428,-0.543 z"
       id="path841"
       inkscape:connector-curvature="0" />
    <flowRoot
       xml:space="preserve"
       id="flowRoot856"
       style="font-style:normal;font-weight:normal;font-size:176px;line-height:125%;font-family:sans-serif;letter-spacing:0px;word-spacing:0px;fill:#ffffff;fill-opacity:1;stroke:none;stroke-width:1px;stroke-linecap:butt;stroke-linejoin:miter;stroke-opacity:1"
       transform="matrix(0.26458333,0,0,0.26458333,19.201337,97.872792)"><flowRegion
         id="flowRegion858"
         style="fill:#ffffff"><rect
           id="rect860"
           width="573.86365"
           height="226.13635"
           x="9.09091"
           y="351.02005"
           style="fill:#ffffff" /></flowRegion><flowPara
         style="font-style:normal;font-variant:normal;font-weight:normal;font-stretch:normal;font-size:176px;font-family:Onyx;-inkscape-font-specification:Onyx;fill:#ffffff"
         id="flowPara864">NetaScale</flowPara></flowRoot>
    <text
       xml:space="preserve"
       style="font-style:normal;font-weight:normal;font-size:38.8056px;line-height:125%;font-family:sans-serif;letter-spacing:0px;word-spacing:0px;fill:#000000;fill-opacity:1;stroke:none;stroke-width:0.264583px;stroke-linecap:butt;stroke-linejoin:miter;stroke-opacity:1"
       x="23.281307"
       y="279.38562"
       id="text876"><tspan
         sodipodi:role="line"
         id="tspan874"
         x="23.281307"
         y="279.38562"
         style="font-style:normal;font-variant:normal;font-weight:normal;font-stretch:normal;font-size:38.8056px;font-family:Onyx;-inkscape-font-specification:Onyx;stroke-width:0.264583px">KEYRONEX</tspan></text>
    <rect
       style="fill:#000000;stroke-width:4.23333"
       id="rect1904"
       width="139.841"
       height="1.4882053"
       x="5.079495"
       y="243.564" />
  </g>
</svg>
