<?xml version="1.0" encoding="UTF-8" standalone="no"?>
<!-- Created with Inkscape (http://www.inkscape.org/) -->

<svg
   width="112mm"
   height="32mm"
   viewBox="0 0 112 32"
   version="1.1"
   id="svg5"
   xml:space="preserve"
   inkscape:version="1.2.1 (9c6d41e410, 2022-07-14)"
   sodipodi:docname="melantix.svg"
   xmlns:inkscape="http://www.inkscape.org/namespaces/inkscape"
   xmlns:sodipodi="http://sodipodi.sourceforge.net/DTD/sodipodi-0.dtd"
   xmlns="http://www.w3.org/2000/svg"
   xmlns:svg="http://www.w3.org/2000/svg"><sodipodi:namedview
     id="namedview7"
     pagecolor="#ffffff"
     bordercolor="#000000"
     borderopacity="0.25"
     inkscape:showpageshadow="2"
     inkscape:pageopacity="0.0"
     inkscape:pagecheckerboard="0"
     inkscape:deskcolor="#d1d1d1"
     inkscape:document-units="mm"
     showgrid="false"
     inkscape:zoom="1.4142136"
     inkscape:cx="145.664"
     inkscape:cy="123.39013"
     inkscape:window-width="1920"
     inkscape:window-height="1002"
     inkscape:window-x="0"
     inkscape:window-y="27"
     inkscape:window-maximized="1"
     inkscape:current-layer="layer1" /><defs
     id="defs2" /><g
     inkscape:label="Layer 1"
     inkscape:groupmode="layer"
     id="layer1"><text
       xml:space="preserve"
       style="font-weight:bold;font-size:25.4px;font-family:'Droid Serif';-inkscape-font-specification:'Droid Serif Bold';fill:#0000c5;stroke-width:0.264583"
       x="4.5726447"
       y="31.001596"
       id="text1516"><tspan
         sodipodi:role="line"
         id="tspan1514"
         style="font-style:italic;font-variant:normal;font-weight:bold;font-stretch:normal;font-size:25.4px;font-family:'URW Gothic';-inkscape-font-specification:'URW Gothic Bold Italic';stroke-width:0.264583"
         x="4.5726447"
         y="31.001596">Melantix</tspan></text><g
       style="fill:#000000;fill-opacity:1;fill-rule:nonzero;stroke:none;stroke-width:0;stroke-linecap:butt;stroke-linejoin:miter;stroke-miterlimit:10;stroke-dasharray:none"
       transform="matrix(0.28973813,0,0,0.28973813,0.31557795,-2.5490261)"
       id="g8556">
	<path
   d="M 9.903,78.896 H 9.647 C 9.072,78.896 8.525,78.649 8.146,78.217 2.893,72.245 0,64.573 0,56.613 0,38.572 14.677,23.895 32.718,23.895 H 52.519 V 13.104 c 0,-0.74 0.409,-1.42 1.063,-1.767 0.653,-0.347 1.445,-0.304 2.06,0.112 l 33.481,22.707 c 0.548,0.372 0.877,0.992 0.877,1.655 0,0.663 -0.329,1.283 -0.878,1.655 L 55.641,60.172 c -0.613,0.415 -1.405,0.458 -2.059,0.111 -0.654,-0.347 -1.063,-1.026 -1.063,-1.767 V 47.75 H 23.992 c -9.241,0 -16.759,7.518 -16.759,16.759 0,4.077 1.481,8.008 4.172,11.065 0.519,0.59 0.645,1.43 0.321,2.146 -0.324,0.716 -1.038,1.176 -1.823,1.176 z M 32.718,27.895 C 16.883,27.895 4,40.778 4,56.613 4,57.297 4.024,57.977 4.072,58.655 6.605,50.05 14.577,43.75 23.992,43.75 h 30.527 c 1.104,0 2,0.896 2,2 v 8.994 L 84.437,35.811 56.519,16.877 v 9.018 c 0,1.104 -0.896,2 -2,2 z"
   style="opacity:1;fill:#0000c5;fill-opacity:1;fill-rule:nonzero;stroke:none;stroke-width:1;stroke-linecap:butt;stroke-linejoin:miter;stroke-miterlimit:10;stroke-dasharray:none"
   stroke-linecap="round"
   id="path8554" />
</g><path
       style="fill:#0000c5;fill-opacity:1;stroke:#0000c5;stroke-width:1.347;stroke-dasharray:none;stroke-opacity:1"
       d="M 1.5318336,13.510803 C 1.6456586,9.5147839 4.715877,6.1658239 8.7588963,5.6275839 c 0.3905538,-0.052 1.2464667,-0.0664 3.9820127,-0.0672 3.222636,-7.9e-4 3.496829,-0.007 3.648228,-0.0828 0.310497,-0.15512 0.32725,-0.24369 0.327332,-1.7305 4e-5,-0.72672 0.01159,-1.32132 0.02569,-1.32132 0.07509,0 7.971584,5.39799 7.939905,5.42766 -0.06561,0.0615 -7.916272,5.3767091 -7.941445,5.3767091 -0.01323,0 -0.0241,-0.59459 -0.02413,-1.32131 -9.2e-5,-1.486159 -0.01675,-1.574349 -0.327331,-1.731599 -0.154178,-0.0781 -0.448117,-0.082 -5.051394,-0.0673 -5.3870726,0.0172 -5.0439993,-10e-4 -5.99673,0.3158 -1.6302839,0.541959 -2.9413961,1.760239 -3.6473825,3.389109 l -0.1824482,0.42095 z"
       id="path9818" /></g></svg>
