<?xml version="1.0" encoding="UTF-8" standalone="no"?>
<!-- Created with Inkscape (http://www.inkscape.org/) -->

<svg
   width="114mm"
   height="36mm"
   viewBox="0 0 114 36"
   version="1.1"
   id="svg5"
   xml:space="preserve"
   inkscape:version="1.2.1 (9c6d41e410, 2022-07-14)"
   sodipodi:docname="melantix_flat.svg"
   inkscape:export-filename="melantix_small.png"
   inkscape:export-xdpi="15.522223"
   inkscape:export-ydpi="15.522223"
   xmlns:inkscape="http://www.inkscape.org/namespaces/inkscape"
   xmlns:sodipodi="http://sodipodi.sourceforge.net/DTD/sodipodi-0.dtd"
   xmlns="http://www.w3.org/2000/svg"
   xmlns:svg="http://www.w3.org/2000/svg"><sodipodi:namedview
     id="namedview7"
     pagecolor="#ffffff"
     bordercolor="#000000"
     borderopacity="0.25"
     inkscape:showpageshadow="2"
     inkscape:pageopacity="0.0"
     inkscape:pagecheckerboard="0"
     inkscape:deskcolor="#d1d1d1"
     inkscape:document-units="mm"
     showgrid="false"
     inkscape:zoom="1"
     inkscape:cx="104"
     inkscape:cy="157.5"
     inkscape:window-width="1920"
     inkscape:window-height="1002"
     inkscape:window-x="0"
     inkscape:window-y="27"
     inkscape:window-maximized="1"
     inkscape:current-layer="layer1" /><defs
     id="defs2" /><g
     inkscape:label="Layer 1"
     inkscape:groupmode="layer"
     id="layer1"><rect
       style="fill:#0000c5;fill-opacity:1;stroke:#0000c5;stroke-width:2.31017"
       id="rect12002"
       width="111.68983"
       height="33.689831"
       x="1.1550814"
       y="1.1550814" /><g
       aria-label="Melantix"
       id="text1516"
       style="font-weight:bold;font-size:25.4px;font-family:'Droid Serif';-inkscape-font-specification:'Droid Serif Bold';fill:#ffffff;fill-opacity:1;stroke-width:0.264583"
       transform="translate(-0.3229157,1.5317956)"><path
         d="m 6.2998447,31.001596 h 3.4797999 l 2.6162004,-14.071599 2.286,14.071599 h 2.8448 l 7.518399,-14.071599 -2.6162,14.071599 h 3.4798 l 3.4798,-18.770599 h -4.7752 l -7.645399,14.224 -2.413,-14.224 H 9.7796446 Z"
         style="font-style:italic;font-family:'URW Gothic';-inkscape-font-specification:'URW Gothic Bold Italic';fill:#ffffff;fill-opacity:1"
         id="path10640" /><path
         d="m 43.815634,25.464397 c 0.3302,-0.7874 0.508,-1.905 0.508,-3.1496 0,-3.3528 -2.4892,-5.715 -6.0198,-5.715 -4.699,0 -8.9408,4.1402 -8.9408,8.7376 0,3.530599 2.6162,5.994399 6.3754,5.994399 3.175,0 6.0706,-1.7018 7.5946,-4.495799 h -3.683 c -0.9652,0.965199 -1.9812,1.396999 -3.429,1.396999 -1.9558,0 -3.302,-1.142999 -3.302,-2.768599 z m -10.4394,-2.9972 c 0.6604,-1.651 2.4384,-2.7686 4.3942,-2.7686 2.159,0 3.302,0.9398 3.4036,2.7686 z"
         style="font-style:italic;font-family:'URW Gothic';-inkscape-font-specification:'URW Gothic Bold Italic';fill:#ffffff;fill-opacity:1"
         id="path10642" /><path
         d="m 45.111039,31.001596 h 3.378199 l 3.4798,-18.770599 h -3.3782 z"
         style="font-style:italic;font-family:'URW Gothic';-inkscape-font-specification:'URW Gothic Bold Italic';fill:#ffffff;fill-opacity:1"
         id="path10644" /><path
         d="m 68.072631,16.929997 h -3.0988 l -0.3302,1.8796 c -0.8128,-1.4986 -2.159,-2.2098 -4.1402,-2.2098 -4.8006,0 -8.762999,4.0894 -8.762999,8.9916 0,3.454399 2.3368,5.740399 5.892799,5.740399 1.9812,0 3.5052,-0.635 5.08,-2.159 l -0.3302,1.8288 h 3.0988 z m -7.8232,2.7686 c 2.0828,0 3.4036,1.2954 3.4036,3.3528 0,1.0922 -0.3302,2.1844 -0.9398,3.0988 -0.9652,1.3716 -2.3114,2.082799 -4.064,2.082799 -2.0828,0 -3.429,-1.295399 -3.429,-3.327399 0,-2.794 2.3368,-5.207 5.0292,-5.207 z"
         style="font-style:italic;font-family:'URW Gothic';-inkscape-font-specification:'URW Gothic Bold Italic';fill:#ffffff;fill-opacity:1"
         id="path10646" /><path
         d="m 67.971028,31.001596 h 3.3782 l 1.2192,-6.629399 c 0.3302,-1.8288 0.6604,-2.7178 1.1938,-3.3782 0.7366,-0.8636 1.651,-1.2954 2.6924,-1.2954 1.397,0 2.1336,0.7112 2.1336,2.0574 0,0.7366 -0.0762,1.5494 -0.2286,2.3622 l -1.27,6.883399 h 3.378199 l 1.397,-7.543799 c 0.2032,-1.143 0.3048,-1.9558 0.3048,-2.6924 0,-2.6924 -1.6002,-4.1656 -4.521199,-4.1656 -1.5748,0 -2.667,0.4318 -4.191,1.6764 l 0.254,-1.3462 h -3.1242 z"
         style="font-style:italic;font-family:'URW Gothic';-inkscape-font-specification:'URW Gothic Bold Italic';fill:#ffffff;fill-opacity:1"
         id="path10648" /><path
         d="m 83.719037,31.001596 h 3.3782 l 2.032,-10.998199 h 2.032 l 0.5842,-3.0734 h -2.032 l 0.8636,-4.699 h -3.3782 l -0.8636,4.699 h -1.651 l -0.5842,3.0734 h 1.651 z"
         style="font-style:italic;font-family:'URW Gothic';-inkscape-font-specification:'URW Gothic Bold Italic';fill:#ffffff;fill-opacity:1"
         id="path10650" /><path
         d="m 90.983429,31.001596 h 3.3782 l 2.6162,-14.071599 h -3.3782 z m 2.8956,-15.595599 h 3.3782 l 0.5842,-3.175 h -3.3782 z"
         style="font-style:italic;font-family:'URW Gothic';-inkscape-font-specification:'URW Gothic Bold Italic';fill:#ffffff;fill-opacity:1"
         id="path10652" /><path
         d="m 95.733222,31.001596 h 4.064 l 3.860798,-4.825999 2.0574,4.825999 h 4.064 l -3.6576,-7.264399 5.5626,-6.8072 h -3.81 l -3.2766,4.2418 -1.7526,-4.2418 h -3.809998 l 3.047998,6.8072 z"
         style="font-style:italic;font-family:'URW Gothic';-inkscape-font-specification:'URW Gothic Bold Italic';fill:#ffffff;fill-opacity:1"
         id="path10654" /></g><g
       style="fill:#ffffff;fill-opacity:1;fill-rule:nonzero;stroke:none;stroke-width:0;stroke-linecap:butt;stroke-linejoin:miter;stroke-miterlimit:10;stroke-dasharray:none"
       transform="matrix(0.28973813,0,0,0.28973813,2.6384957,-1.0172305)"
       id="g8556">
	<path
   d="M 9.903,78.896 H 9.647 C 9.072,78.896 8.525,78.649 8.146,78.217 2.893,72.245 0,64.573 0,56.613 0,38.572 14.677,23.895 32.718,23.895 H 52.519 V 13.104 c 0,-0.74 0.409,-1.42 1.063,-1.767 0.653,-0.347 1.445,-0.304 2.06,0.112 l 33.481,22.707 c 0.548,0.372 0.877,0.992 0.877,1.655 0,0.663 -0.329,1.283 -0.878,1.655 L 55.641,60.172 c -0.613,0.415 -1.405,0.458 -2.059,0.111 -0.654,-0.347 -1.063,-1.026 -1.063,-1.767 V 47.75 H 23.992 c -9.241,0 -16.759,7.518 -16.759,16.759 0,4.077 1.481,8.008 4.172,11.065 0.519,0.59 0.645,1.43 0.321,2.146 -0.324,0.716 -1.038,1.176 -1.823,1.176 z M 32.718,27.895 C 16.883,27.895 4,40.778 4,56.613 4,57.297 4.024,57.977 4.072,58.655 6.605,50.05 14.577,43.75 23.992,43.75 h 30.527 c 1.104,0 2,0.896 2,2 v 8.994 L 84.437,35.811 56.519,16.877 v 9.018 c 0,1.104 -0.896,2 -2,2 z"
   style="opacity:1;fill:#ffffff;fill-opacity:1;fill-rule:nonzero;stroke:none;stroke-width:1;stroke-linecap:butt;stroke-linejoin:miter;stroke-miterlimit:10;stroke-dasharray:none"
   stroke-linecap="round"
   id="path8554" />
</g><path
       style="fill:#ffffff;fill-opacity:1;stroke:#ffffff;stroke-width:1.347;stroke-dasharray:none;stroke-opacity:1"
       d="m 3.8547514,15.042599 c 0.113825,-3.996019 3.1840434,-7.3449795 7.2270626,-7.8832195 0.390554,-0.052 1.246468,-0.0664 3.982014,-0.0672 3.222636,-7.9e-4 3.496829,-0.007 3.648228,-0.0828 0.310497,-0.15512 0.32725,-0.24369 0.327332,-1.7305 4e-5,-0.72672 0.01159,-1.32132 0.02569,-1.32132 0.07509,0 7.971584,5.39799 7.939905,5.42766 -0.06561,0.0615 -7.916272,5.3767095 -7.941445,5.3767095 -0.01323,0 -0.0241,-0.59459 -0.02413,-1.32131 -9.2e-5,-1.486159 -0.01675,-1.574349 -0.327331,-1.731599 -0.154178,-0.0781 -0.448117,-0.082 -5.051394,-0.0673 -5.3870738,0.0172 -5.0440005,-10e-4 -5.9967312,0.3158 -1.6302839,0.541959 -2.9413961,1.760239 -3.6473825,3.389109 l -0.1824482,0.42095 z"
       id="path9818" /><text
       xml:space="preserve"
       style="font-style:italic;font-variant:normal;font-weight:bold;font-stretch:normal;font-size:25.4px;font-family:'URW Gothic';-inkscape-font-specification:'URW Gothic Bold Italic';fill:#ffffff;stroke:#ffffff;stroke-width:1.347"
       x="-53.164955"
       y="65.906136"
       id="text1219"><tspan
         sodipodi:role="line"
         id="tspan1217"
         style="stroke-width:1.347"></tspan></text></g></svg>
